<?xml version="1.0" encoding="UTF-8"?>
<svg xmlns="http://www.w3.org/2000/svg" xmlns:xlink="http://www.w3.org/1999/xlink" width="1024pt" height="1024pt" viewBox="0 0 1024 1024" version="1.1">
<defs>
<clipPath id="clip1">
  <path d="M 321 46 L 916 46 L 916 898 L 321 898 Z M 321 46 "/>
</clipPath>
<clipPath id="clip2">
  <path d="M 512 977.453125 C 646.363281 899.878906 780.730469 822.304688 915.09375 744.726562 C 915.09375 589.574219 915.09375 434.425781 915.09375 279.273438 C 780.730469 201.695312 646.363281 124.121094 512 46.546875 C 377.636719 124.121094 243.269531 201.695312 108.90625 279.273438 C 108.90625 434.425781 108.90625 589.574219 108.90625 744.726562 C 243.269531 822.304688 377.636719 899.878906 512 977.453125 "/>
</clipPath>
<clipPath id="clip3">
  <path d="M 108 142 L 434 142 L 434 917 L 108 917 Z M 108 142 "/>
</clipPath>
<clipPath id="clip4">
  <path d="M 512 977.453125 C 646.363281 899.878906 780.730469 822.304688 915.09375 744.726562 C 915.09375 589.574219 915.09375 434.425781 915.09375 279.273438 C 780.730469 201.695312 646.363281 124.121094 512 46.546875 C 377.636719 124.121094 243.269531 201.695312 108.90625 279.273438 C 108.90625 434.425781 108.90625 589.574219 108.90625 744.726562 C 243.269531 822.304688 377.636719 899.878906 512 977.453125 "/>
</clipPath>
<clipPath id="clip5">
  <path d="M 254 483 L 780 483 L 780 978 L 254 978 Z M 254 483 "/>
</clipPath>
<clipPath id="clip6">
  <path d="M 512 977.453125 C 646.363281 899.878906 780.730469 822.304688 915.09375 744.726562 C 915.09375 589.574219 915.09375 434.425781 915.09375 279.273438 C 780.730469 201.695312 646.363281 124.121094 512 46.546875 C 377.636719 124.121094 243.269531 201.695312 108.90625 279.273438 C 108.90625 434.425781 108.90625 589.574219 108.90625 744.726562 C 243.269531 822.304688 377.636719 899.878906 512 977.453125 "/>
</clipPath>
</defs>
<g id="surface93864">
<g clip-path="url(#clip1)" clip-rule="nonzero">
<g clip-path="url(#clip2)" clip-rule="evenodd">
<path style=" stroke:none;fill-rule:nonzero;fill:rgb(29.019608%,42.352941%,100%);fill-opacity:1;" d="M 944.835938 895.710938 C 1011.324219 811.410156 1051.621094 709.453125 1060.726562 602.472656 C 1066.929688 529.570312 1058.382812 456.191406 1036.140625 386.492188 C 1014.191406 317.695312 979.273438 253.675781 932.542969 198.609375 C 892.746094 151.707031 845.078125 112.15625 792.070312 80.960938 C 739.808594 50.207031 682.957031 27.929688 623.5 15.992188 C 574.984375 6.253906 525.347656 3.53125 476.003906 7.214844 C 423.203125 11.152344 371.203125 22.378906 321.484375 40.574219 C 371.195312 68.199219 415.222656 99.3125 456.6875 133.640625 C 497.875 167.734375 536.402344 204.894531 572.578125 244.261719 C 613.4375 288.722656 651.207031 335.898438 686.714844 384.738281 C 719.761719 430.1875 750.828125 477.046875 779.777344 525.210938 C 807.992188 572.148438 834.171875 620.277344 858.792969 669.195312 C 877.296875 705.953125 894.925781 743.171875 909.714844 781.574219 C 924.242188 819.292969 935.980469 858.027344 944.835938 897.464844 Z M 944.835938 895.710938 "/>
</g>
</g>
<g clip-path="url(#clip3)" clip-rule="nonzero">
<g clip-path="url(#clip4)" clip-rule="evenodd">
<path style=" stroke:none;fill-rule:nonzero;fill:rgb(61.568627%,12.156863%,14.117647%);fill-opacity:1;" d="M 151.15625 142.417969 C 120.691406 170.046875 93.046875 200.632812 68.628906 233.726562 C 41.761719 270.148438 18.933594 309.4375 1.90625 351.375 C -13.210938 388.601562 -23.601562 427.554688 -29.703125 467.265625 C -36.929688 514.332031 -38.082031 562.128906 -33.214844 609.496094 C -28.347656 656.839844 -17.503906 703.355469 -1.605469 748.210938 C 9.179688 778.644531 22.273438 808.253906 38.777344 836.007812 C 56.324219 865.515625 77.570312 892.65625 101.992188 916.78125 C 113.839844 876.378906 129.070312 836.546875 145.890625 797.378906 C 160.460938 763.445312 176.21875 730.03125 193.300781 697.289062 C 215.875 654.011719 240.730469 611.972656 267.050781 570.863281 C 291.3125 532.96875 316.820312 495.871094 344.308594 460.242188 C 372.214844 424.074219 402.113281 389.488281 433.863281 356.640625 C 404.359375 321.871094 372.058594 289.570312 337.285156 260.066406 C 305.277344 232.910156 271.265625 208.199219 235.441406 186.316406 C 208.828125 170.0625 181.269531 155.402344 152.914062 142.417969 Z M 151.15625 142.417969 "/>
</g>
</g>
<g clip-path="url(#clip5)" clip-rule="nonzero">
<g clip-path="url(#clip6)" clip-rule="evenodd">
<path style=" stroke:none;fill-rule:nonzero;fill:rgb(39.607843%,30.980392%,94.117647%);fill-opacity:1;" d="M 254.757812 1039.695312 C 296.898438 1064.003906 342.488281 1081.765625 389.964844 1092.371094 C 437.167969 1102.921875 485.617188 1106.265625 533.949219 1104.664062 C 580.878906 1103.109375 627.625 1096.894531 672.667969 1083.59375 C 710.269531 1072.488281 746.273438 1056.550781 779.777344 1036.183594 C 765.058594 976.285156 747.480469 915.34375 727.101562 855.324219 C 706.988281 796.089844 684.152344 737.78125 656.863281 681.488281 C 622.980469 611.589844 582.40625 545.136719 535.703125 483.066406 C 501.964844 519.621094 470.203125 559.617188 442.640625 602.472656 C 416.824219 642.609375 394.839844 685.027344 372.402344 727.140625 C 355.414062 759.03125 338.140625 790.796875 323.238281 823.71875 C 309.777344 853.445312 298.296875 884.019531 288.121094 915.023438 C 274.695312 955.929688 263.558594 997.550781 254.757812 1039.695312 Z M 254.757812 1039.695312 "/>
</g>
</g>
<path style="fill:none;stroke-width:0.02;stroke-linecap:round;stroke-linejoin:round;stroke:rgb(100%,100%,100%);stroke-opacity:1;stroke-miterlimit:10;" d="M 512 977.453125 C 646.363281 899.878906 780.730469 822.304688 915.09375 744.726562 C 915.09375 589.574219 915.09375 434.425781 915.09375 279.273438 C 780.730469 201.695312 646.363281 124.121094 512 46.546875 C 377.636719 124.121094 243.269531 201.695312 108.90625 279.273438 C 108.90625 434.425781 108.90625 589.574219 108.90625 744.726562 C 243.269531 822.304688 377.636719 899.878906 512 977.453125 "/>
</g>
</svg>
