<svg xmlns="http://www.w3.org/2000/svg" version="1.1" xmlns:xlink="http://www.w3.org/1999/xlink" width="512" height="512"><svg xmlns="http://www.w3.org/2000/svg" version="1.1" xmlns:xlink="http://www.w3.org/1999/xlink" width="512" height="512"><svg xmlns="http://www.w3.org/2000/svg" xmlns:xlink="http://www.w3.org/1999/xlink" width="512" height="512" viewBox="0 0 512 512">
<defs>
<clipPath id="clip-0">
<path clip-rule="nonzero" d="M 160 23 L 458 23 L 458 427 L 160 427 Z M 160 23 "></path>
</clipPath>
<clipPath id="clip-1">
<path clip-rule="evenodd" d="M 256 488.726562 C 323.183594 449.9375 390.363281 411.152344 457.546875 372.363281 C 457.546875 294.789062 457.546875 217.210938 457.546875 139.636719 C 390.363281 100.847656 323.183594 62.0625 256 23.273438 C 188.816406 62.0625 121.636719 100.847656 54.453125 139.636719 C 54.453125 217.210938 54.453125 294.789062 54.453125 372.363281 C 121.636719 411.152344 188.816406 449.9375 256 488.726562 "></path>
</clipPath>
<clipPath id="clip-2">
<path clip-rule="nonzero" d="M 54 49 L 217 49 L 217 437 L 54 437 Z M 54 49 "></path>
</clipPath>
<clipPath id="clip-3">
<path clip-rule="evenodd" d="M 256 488.726562 C 323.183594 449.9375 390.363281 411.152344 457.546875 372.363281 C 457.546875 294.789062 457.546875 217.210938 457.546875 139.636719 C 390.363281 100.847656 323.183594 62.0625 256 23.273438 C 188.816406 62.0625 121.636719 100.847656 54.453125 139.636719 C 54.453125 217.210938 54.453125 294.789062 54.453125 372.363281 C 121.636719 411.152344 188.816406 449.9375 256 488.726562 "></path>
</clipPath>
<clipPath id="clip-4">
<path clip-rule="nonzero" d="M 127 219 L 390 219 L 390 489 L 127 489 Z M 127 219 "></path>
</clipPath>
<clipPath id="clip-5">
<path clip-rule="evenodd" d="M 256 488.726562 C 323.183594 449.9375 390.363281 411.152344 457.546875 372.363281 C 457.546875 294.789062 457.546875 217.210938 457.546875 139.636719 C 390.363281 100.847656 323.183594 62.0625 256 23.273438 C 188.816406 62.0625 121.636719 100.847656 54.453125 139.636719 C 54.453125 217.210938 54.453125 294.789062 54.453125 372.363281 C 121.636719 411.152344 188.816406 449.9375 256 488.726562 "></path>
</clipPath>
</defs>
<g clip-path="url(#clip-0)">
<g clip-path="url(#clip-1)">
<path fill-rule="nonzero" fill="rgb(29.019608%, 42.352941%, 100%)" fill-opacity="1" d="M 472.417969 425.886719 C 505.664062 383.734375 525.808594 332.757812 530.363281 279.265625 C 533.464844 242.816406 529.191406 206.128906 518.070312 171.277344 C 507.09375 136.878906 489.636719 104.867188 466.273438 77.335938 C 446.371094 53.886719 422.539062 34.109375 396.035156 18.511719 C 369.90625 3.132812 341.476562 -8.003906 311.75 -13.972656 C 287.492188 -18.84375 262.671875 -20.203125 238 -18.363281 C 211.601562 -16.394531 185.601562 -10.78125 160.742188 -1.679688 C 185.597656 12.128906 207.613281 27.6875 228.34375 44.851562 C 248.9375 61.898438 268.203125 80.476562 286.289062 100.160156 C 306.71875 122.390625 325.601562 145.980469 343.355469 170.398438 C 359.878906 193.125 375.414062 216.554688 389.890625 240.636719 C 403.996094 264.105469 417.085938 288.167969 429.398438 312.628906 C 438.648438 331.007812 447.460938 349.617188 454.859375 368.816406 C 462.121094 387.675781 467.992188 407.042969 472.417969 426.761719 Z M 472.417969 425.886719 "></path>
</g>
</g>
<g clip-path="url(#clip-2)">
<g clip-path="url(#clip-3)">
<path fill-rule="nonzero" fill="rgb(61.568627%, 12.156863%, 14.117647%)" fill-opacity="1" d="M 75.578125 49.242188 C 60.34375 63.054688 46.523438 78.347656 34.316406 94.894531 C 20.882812 113.105469 9.464844 132.75 0.953125 153.71875 C -6.605469 172.332031 -11.800781 191.808594 -14.851562 211.664062 C -18.464844 235.195312 -19.042969 259.09375 -16.605469 282.777344 C -14.171875 306.449219 -8.75 329.707031 -0.804688 352.136719 C 4.589844 367.355469 11.136719 382.15625 19.390625 396.035156 C 28.164062 410.789062 38.785156 424.359375 50.996094 436.421875 C 56.917969 416.222656 64.535156 396.304688 72.945312 376.71875 C 80.230469 359.753906 88.109375 343.046875 96.648438 326.675781 C 107.9375 305.035156 120.363281 284.015625 133.523438 263.460938 C 145.65625 244.515625 158.410156 225.964844 172.15625 208.152344 C 186.109375 190.066406 201.054688 172.773438 216.929688 156.351562 C 202.179688 138.964844 186.027344 122.816406 168.644531 108.0625 C 152.640625 94.484375 135.632812 82.128906 117.722656 71.1875 C 104.414062 63.0625 90.636719 55.730469 76.457031 49.242188 Z M 75.578125 49.242188 "></path>
</g>
</g>
<g clip-path="url(#clip-4)">
<g clip-path="url(#clip-5)">
<path fill-rule="nonzero" fill="rgb(39.607843%, 30.980392%, 94.117647%)" fill-opacity="1" d="M 127.378906 497.878906 C 148.449219 510.03125 171.242188 518.914062 194.980469 524.21875 C 218.585938 529.492188 242.808594 531.164062 266.972656 530.363281 C 290.4375 529.585938 313.8125 526.476562 336.332031 519.828125 C 355.136719 514.273438 373.136719 506.304688 389.890625 496.121094 C 382.53125 466.171875 373.742188 435.703125 363.550781 405.691406 C 353.492188 376.074219 342.074219 346.921875 328.433594 318.773438 C 311.492188 283.824219 291.203125 250.601562 267.851562 219.566406 C 250.984375 237.839844 235.101562 257.839844 221.320312 279.265625 C 208.410156 299.335938 197.417969 320.542969 186.203125 341.601562 C 177.707031 357.546875 169.070312 373.429688 161.621094 389.890625 C 154.890625 404.753906 149.148438 420.039062 144.058594 435.542969 C 137.347656 455.996094 131.777344 476.804688 127.378906 497.878906 Z M 127.378906 497.878906 "></path>
</g>
</g>
<path fill="none" stroke-width="0.02" stroke-linecap="round" stroke-linejoin="round" stroke="rgb(100%, 100%, 100%)" stroke-opacity="1" stroke-miterlimit="10" d="M 256 488.726562 C 323.183594 449.9375 390.363281 411.152344 457.546875 372.363281 C 457.546875 294.789062 457.546875 217.210938 457.546875 139.636719 C 390.363281 100.847656 323.183594 62.0625 256 23.273438 C 188.816406 62.0625 121.636719 100.847656 54.453125 139.636719 C 54.453125 217.210938 54.453125 294.789062 54.453125 372.363281 C 121.636719 411.152344 188.816406 449.9375 256 488.726562 "></path>
</svg></svg><style>@media (prefers-color-scheme: light) { :root { filter: none; } }
@media (prefers-color-scheme: dark) { :root { filter: none; } }
</style></svg>